<?xml version="1.0" standalone="no"?>
<!DOCTYPE svg PUBLIC "-//W3C//DTD SVG 20010904//EN"
 "http://www.w3.org/TR/2001/REC-SVG-20010904/DTD/svg10.dtd">
<svg version="1.0" xmlns="http://www.w3.org/2000/svg"
 width="300.000000pt" height="300.000000pt" viewBox="0 0 300.000000 300.000000"
 preserveAspectRatio="xMidYMid meet">
<metadata>
Created by potrace 1.10, written by Peter Selinger 2001-2011
</metadata>
<g transform="translate(0.000000,300.000000) scale(0.100000,-0.100000)"
fill="#000000" stroke="none">
<path d="M1530 1965 c0 -12 13 -15 61 -15 l60 0 -3 -165 -3 -165 68 0 67 0 0
165 0 165 65 0 c51 0 65 3 65 15 0 13 -28 15 -190 15 -162 0 -190 -2 -190 -15z
m220 -170 l0 -155 -40 0 -40 0 0 155 0 155 40 0 40 0 0 -155z"/>
<path d="M710 1960 c0 -6 27 -10 60 -10 l60 0 0 -165 0 -165 68 0 67 0 -3 165
-3 165 85 0 c47 0 97 -5 113 -11 77 -29 108 -102 101 -242 l-3 -77 56 0 c66 0
69 5 69 105 0 77 -25 130 -81 178 -69 59 -111 67 -366 67 -142 0 -223 -4 -223
-10z m220 -165 l0 -145 -35 0 -35 0 0 145 0 145 35 0 35 0 0 -145z m378 60
c35 -39 45 -77 40 -150 -3 -46 -5 -50 -30 -53 l-28 -3 0 68 c0 37 -7 92 -14
121 -8 28 -11 52 -6 52 4 0 22 -16 38 -35z"/>
<path d="M899 1548 c-7 -12 -4 -78 2 -78 5 0 9 4 9 9 0 5 10 11 22 13 26 3 37
36 16 49 -12 8 -46 12 -49 7z m39 -29 c-2 -6 -8 -10 -13 -10 -5 0 -11 4 -13
10 -2 6 4 11 13 11 9 0 15 -5 13 -11z"/>
<path d="M1017 1510 c-17 -44 -16 -46 14 -27 17 10 23 10 26 0 3 -7 11 -13 19
-13 12 0 10 8 -6 40 -11 22 -24 40 -29 40 -4 0 -15 -18 -24 -40z m33 0 c0 -5
-5 -10 -11 -10 -5 0 -7 5 -4 10 3 6 8 10 11 10 2 0 4 -4 4 -10z"/>
<path d="M1130 1510 c0 -39 12 -53 24 -27 5 10 7 10 12 0 3 -7 13 -13 22 -13
12 0 13 3 4 12 -9 9 -9 15 0 26 10 11 8 17 -7 28 -10 8 -27 14 -37 14 -14 0
-18 -8 -18 -40z m48 8 c-6 -18 -28 -21 -28 -4 0 9 7 16 16 16 9 0 14 -5 12
-12z"/>
<path d="M1248 1510 c-2 -27 0 -40 9 -40 7 0 10 6 7 14 -4 9 3 16 18 19 l23 4
-22 2 c-32 2 -29 21 3 21 14 0 23 4 19 10 -3 6 -17 10 -30 10 -19 0 -23 -6
-27 -40z"/>
<path d="M1360 1510 c-20 -39 -16 -52 8 -28 10 10 17 10 32 0 31 -19 32 -15
10 28 -11 22 -22 40 -25 40 -3 0 -14 -18 -25 -40z m35 0 c3 -5 -1 -10 -10 -10
-9 0 -13 5 -10 10 3 6 8 10 10 10 2 0 7 -4 10 -10z"/>
<path d="M1540 1510 c0 -38 2 -40 31 -40 17 0 28 4 24 10 -3 5 -12 7 -20 3
-12 -4 -15 3 -15 31 0 20 -4 36 -10 36 -5 0 -10 -18 -10 -40z"/>
<path d="M1650 1536 c-19 -23 -8 -61 18 -64 46 -7 72 47 33 68 -26 14 -36 13
-51 -4z m48 -28 c-2 -13 -10 -23 -18 -23 -8 0 -16 10 -18 23 -3 17 2 22 18 22
16 0 21 -5 18 -22z"/>
<path d="M1770 1510 c0 -22 5 -40 10 -40 6 0 10 10 10 22 l0 22 16 -22 c23
-33 34 -27 34 18 0 22 -4 40 -10 40 -5 0 -10 -10 -10 -22 l-1 -23 -18 23 c-26
31 -31 28 -31 -18z"/>
<path d="M1908 1539 c-36 -20 -15 -69 29 -69 16 0 23 6 23 20 0 11 -4 20 -10
20 -5 0 -9 -6 -7 -12 1 -7 -5 -13 -13 -13 -8 0 -17 11 -18 24 -3 21 -1 23 23
19 16 -4 24 -1 22 6 -5 15 -28 18 -49 5z"/>
<path d="M2021 1541 c-17 -11 -7 -41 14 -41 8 0 15 -5 15 -11 0 -6 -9 -8 -20
-4 -12 4 -20 2 -20 -5 0 -6 12 -10 27 -8 35 4 42 33 11 43 l-23 8 23 4 c12 2
20 9 17 14 -8 11 -26 11 -44 0z"/>
<path d="M830 1220 l0 -160 -60 0 c-33 0 -60 -4 -60 -10 0 -6 70 -10 191 -10
124 0 188 3 184 10 -3 6 -33 10 -66 10 l-60 0 3 160 3 160 -67 0 -68 0 0 -160z
m100 -10 l0 -140 -35 0 -35 0 0 140 0 140 35 0 35 0 0 -140z"/>
<path d="M1648 1230 l3 -150 -60 0 c-42 0 -61 -4 -61 -12 0 -10 77 -12 367 -8
l368 5 3 138 c1 75 -1 137 -6 137 -5 0 -16 -33 -25 -72 -23 -95 -53 -149 -97
-170 -29 -15 -63 -18 -197 -18 l-163 0 0 150 0 150 -67 0 -68 0 3 -150z m102
-10 l0 -140 -40 0 -40 0 0 140 0 140 40 0 40 0 0 -140z m495 -82 c-1 -24 -3
-46 -4 -50 0 -5 -16 -8 -35 -8 l-34 0 31 49 c18 28 35 50 38 50 4 1 6 -18 4
-41z"/>
</g>
</svg>
